<svg width="180" height="128" viewBox="0 0 180 128" fill="none" xmlns="http://www.w3.org/2000/svg">
<path d="M91.8937 20.3865C92.9083 20.4472 93.9168 20.5864 94.9099 20.8029C96.6092 21.2872 98.3085 21.3721 98.9883 19.6133C99.3536 18.7127 98.6229 17.3703 98.2915 15.7899C98.8013 15.7899 99.8294 15.4161 100.586 15.7304C103.381 16.8945 104.384 15.7304 104.392 12.8671C106.814 12.6802 108.819 12.0175 109.133 9.12016C109.184 8.61886 110.459 7.91365 111.198 7.87967C116.729 7.58229 117.145 7.20844 117.29 2.27197L120.043 3.78435L120.34 0.300785C122.192 -0.548866 123.382 4.30264 125.871 1.4903C128.123 3.84383 129.967 3.68239 135.54 0.564177C134.979 1.4903 134.572 2.16152 134.113 2.90072C136.458 4.8804 137.375 1.75369 139.653 1.4648C134.996 6.03592 137.766 9.64694 139.933 13.5638C140.621 14.7958 140.128 16.869 139.746 18.4493C139.313 20.2166 138.2 21.8479 137.741 23.5897C137.027 26.3086 136.628 29.1039 135.931 32.7065L133.382 29.8261C131.813 31.184 130.327 32.6338 128.93 34.1679C128.42 34.7796 128.641 35.9946 128.582 36.4449L139.805 37.2946L139.89 36.7678C139.565 36.6655 139.25 36.5347 138.947 36.3769C138.626 36.1202 138.327 35.8359 138.055 35.5273L140.749 33.9045C141.896 37.3031 141.598 41.7722 146.458 42.5709C146.934 42.6474 147.495 42.2056 147.996 42.0101C151.165 44.3892 154.19 47.3799 158.447 49.0197C157.274 50.5321 155.796 51.5687 158.107 53.0471C158.804 53.4804 158.566 55.4176 158.761 56.6751L160.061 57.2953C160.439 56.6601 160.752 55.9883 160.996 55.2902C161.905 51.5942 164.921 49.6315 167.436 47.2355C168.796 45.944 169.815 45.8506 171.158 47.312C172.339 48.6034 174.148 49.3681 175.142 50.7105C177.054 53.3615 179.832 56.2418 179.951 59.1136C180.113 62.971 177.623 66.6245 173.919 68.7996C170.767 70.6433 167.81 70.0571 165.159 67.7885C162.746 65.7239 160.443 63.5403 157.962 61.2462C159.126 64.271 156.263 65.3245 154.657 67.1938C154.284 67.6356 154.309 68.4173 153.808 68.4937L149.186 71.3146C148.659 71.408 147.631 71.6204 146.586 71.7394C145.541 71.8583 144.241 72.2237 143.23 71.9263C141.387 71.3534 139.612 70.5813 137.936 69.6238C136.993 69.1055 136.364 68.0349 135.455 67.4402C133.178 65.9533 132.227 63.5743 130.961 61.3737C130.765 61.0338 129.975 61.0253 130.247 61.1103C129.397 59.1306 128.828 57.7117 128.199 56.2078L125.939 57.3378L125.276 55.4601L120.094 52.5883L116.092 55.8254H118.7C118.7 58.5358 118.7 61.1443 118.7 63.7527C118.787 64.4578 118.738 65.1732 118.556 65.8598C117.63 67.8565 116.618 69.8192 115.505 71.7139C114.392 73.6086 113.517 75.9622 110.841 76.4295C110.662 76.4295 110.382 76.5314 110.348 76.6504C109.235 79.913 105.743 79.6157 103.5 81.179C103.016 81.5189 102.005 81.0856 101.104 81.0006L99.5745 86.9481C97.5948 85.5972 94.9609 85.6397 94.9184 82.6999C94.1216 82.579 93.319 82.4996 92.5139 82.462C92.4035 82.2156 92.0381 81.3404 91.5793 80.2529C88.7839 81.8502 85.7337 82.6489 85.1899 85.3508L78.1718 90.4487L76.2346 89.9559C75.385 91.1624 74.8157 92.5983 73.7621 93.448C71.1282 95.5721 72.4622 97.2289 73.8301 99.3106C74.9431 101.01 75.4444 103.066 76.2176 104.961L74.9601 105.471L71.9609 98.9877C70.2616 98.0786 68.8511 97.2884 67.4322 96.6427C66.693 96.3028 65.563 95.6995 65.1382 95.9884C62.0454 98.0871 57.6867 98.1126 55.6136 101.936C54.94 103.153 54.0799 104.257 53.0646 105.207C51.4844 106.597 50.4812 108.527 50.2523 110.619C49.5726 115.649 48.3151 120.603 47.2105 125.565C46.9582 126.331 46.5633 127.043 46.0465 127.663C45.9701 127.774 45.1204 127.561 45.1119 127.459C44.937 126.602 44.937 125.717 45.1119 124.86C46.7602 120.314 48.3661 115.802 47.304 110.815C47.2598 110.456 47.2956 110.091 47.4087 109.748C47.5218 109.404 47.7094 109.089 47.9582 108.827C50.6686 106.329 50.6941 102.811 51.5523 99.6249C51.6967 99.0727 50.9915 98.291 50.2948 97.7642C51.2804 93.329 47.1086 92.9042 44.908 90.8055L41.8832 92.9042C42.1806 90.95 44.6616 89.3017 42.2231 87.6618C40.7107 86.6423 39.1134 85.7501 37.1932 84.5776C37.652 83.0312 36.6409 82.0712 34.2109 82.3685C33.6841 78.6301 32.7155 75.189 29.113 73.872C30.1456 72.8121 31.0971 71.6761 31.9593 70.4734C32.1293 70.193 31.2371 69.2584 30.5064 68.1114C30.9737 64.5259 30.4469 62.5547 26.9124 62.7416C28.7816 60.8469 28.6712 59.7508 25.8418 57.2444C25.3575 59.7253 24.9412 61.841 24.5504 63.8546H11.7546V63.6932L20.1577 62.3253C23.2589 61.807 24.6608 58.8417 24.0916 55.783C23.6922 53.6588 23.106 52.2059 20.9733 52.0955C19.3026 52.0237 17.6334 52.2688 16.0539 52.8177C10.8455 54.6614 5.71361 56.6921 0.377808 58.3744C1.67728 57.8095 2.94768 57.18 4.18424 56.4882C7.12404 54.6274 10.1318 52.8177 12.8422 50.6851C14.414 49.4531 17.5832 48.8583 19.1976 50.1243C21.7465 52.104 22.9105 51.6707 23.7347 48.6884C23.9131 48.0596 24.8902 47.5583 25.5954 47.176C27.2947 46.2669 29.1045 45.5957 30.6933 44.5506C31.3985 44.0918 31.6534 42.9532 32.2652 41.8487L26.734 41.3559V40.7441H30.8888C30.0803 39.3518 29.1923 38.0071 28.2294 36.7168C27.1418 35.4423 27.2862 34.5842 28.7476 33.896C30.9992 32.8254 31.8998 31.1771 31.2966 28.6706C31.1776 28.1778 31.7979 27.4981 32.0868 26.9033C32.3077 26.436 32.7155 25.9942 32.7495 25.5184C32.6814 24.3579 32.873 23.1969 33.3103 22.1198C32.7835 21.3636 32.2567 20.6074 31.2456 19.18L34.7717 19.7833C35.12 17.7951 36.0546 15.7304 33.1318 14.7958C32.97 14.7083 32.8438 14.5671 32.775 14.3965C31.8828 12.6292 30.9907 10.8534 29.9202 8.70383C31.6789 9.68942 33.5737 10.4031 35.069 11.6691C36.9298 13.19 38.6886 12.2129 40.2604 11.6691C41.0336 11.3887 41.297 9.68093 41.6878 8.83128C42.7669 9.17963 44.1773 10.0293 45.5537 9.9783C47.7118 9.89334 49.802 9.32407 51.9686 10.2502C52.2915 10.3861 53.1666 9.44302 53.6679 8.89925C54.4666 8.0496 55.1718 7.13198 55.9195 6.23984C56.5822 7.43785 57.3044 8.61037 57.8652 9.85086C57.9755 10.4633 57.9755 11.0906 57.8652 11.7031C60.5246 11.8305 60.0063 13.8272 59.9638 14.9233C62.1134 17.2428 64.7048 18.9421 65.4355 21.2362C65.8944 22.6381 66.2002 24.4139 67.2198 25.1361C68.5708 26.0962 70.508 26.3681 72.2327 26.538C72.6066 26.538 73.3033 25.0001 73.5837 24.0825C74.136 22.2388 75.4784 22.1538 78.6816 24.1505L75.0196 26.3256C75.3 27.0053 75.5974 27.6935 75.7843 28.1268C74.9426 28.28 74.1308 28.5668 73.3798 28.9765C73.1844 29.1464 73.7111 30.2085 73.9066 30.8542C74.6458 30.5313 75.6059 30.3954 76.0902 29.8516C77.5261 28.2713 78.7836 26.5295 80.16 24.7537C81.0861 26.1981 81.409 29.1464 83.907 28.4072C84.7566 30.9562 85.4873 33.2078 86.2775 35.4848C86.5154 36.1645 87.2291 36.8612 87.1271 37.4475C86.6088 40.4978 89.2597 40.2089 90.7891 41.033C91.078 41.186 91.9276 40.8206 92.1571 40.4638C93.3126 38.62 94.0858 36.4449 95.5556 34.9155C96.2948 34.1424 98.2066 34.4992 100.229 34.2698C100.016 33.4202 100.093 31.5254 99.2856 30.9987C98.3085 30.3529 96.5837 30.8457 94.774 30.8457C96.2863 29.9196 98.0366 29.4183 98.4954 28.3647C98.8183 27.6086 97.4929 26.0367 96.7197 24.9661C95.8388 23.7877 94.8672 22.6797 93.8139 21.6525C93.2193 21.1334 92.5827 20.6645 91.9107 20.2506L91.8937 20.3865Z" fill="white"/>
</svg>
